<svg width="140" height="28" viewBox="0 0 140 28" fill="none" xmlns="http://www.w3.org/2000/svg">
<path d="M12.9241 4.51296C13.3643 3.62116 14.636 3.62116 15.0762 4.51296L17.3262 9.07125C17.5009 9.42507 17.8383 9.67042 18.2287 9.72748L23.2623 10.4632C24.2462 10.607 24.6383 11.8164 23.926 12.5102L20.2856 16.0559C20.0026 16.3316 19.8734 16.729 19.9402 17.1184L20.7991 22.1262C20.9672 23.1065 19.9382 23.8541 19.0578 23.3911L14.5587 21.0251C14.209 20.8412 13.7913 20.8412 13.4416 21.0251L8.94252 23.3911C8.06217 23.8541 7.03311 23.1065 7.20125 22.1262L8.06013 17.1184C8.12693 16.729 7.99773 16.3316 7.71468 16.0559L4.07431 12.5102C3.362 11.8164 3.75414 10.607 4.73804 10.4632L9.7716 9.72748C10.162 9.67042 10.4995 9.42507 10.6741 9.07125L12.9241 4.51296Z" fill="#FFCC00"/>
<path d="M40.9241 4.51296C41.3643 3.62116 42.636 3.62116 43.0762 4.51296L45.3262 9.07125C45.5009 9.42507 45.8383 9.67042 46.2287 9.72748L51.2623 10.4632C52.2462 10.607 52.6383 11.8164 51.926 12.5102L48.2856 16.0559C48.0026 16.3316 47.8734 16.729 47.9402 17.1184L48.7991 22.1262C48.9672 23.1065 47.9382 23.8541 47.0578 23.3911L42.5587 21.0251C42.209 20.8412 41.7913 20.8412 41.4416 21.0251L36.9425 23.3911C36.0622 23.8541 35.0331 23.1065 35.2012 22.1262L36.0601 17.1184C36.1269 16.729 35.9977 16.3316 35.7147 16.0559L32.0743 12.5102C31.362 11.8164 31.7541 10.607 32.738 10.4632L37.7716 9.72748C38.162 9.67042 38.4995 9.42507 38.6741 9.07125L40.9241 4.51296Z" fill="#FFCC00"/>
<path d="M68.9241 4.51296C69.3643 3.62116 70.636 3.62116 71.0762 4.51296L73.3262 9.07125C73.5009 9.42507 73.8383 9.67042 74.2287 9.72748L79.2623 10.4632C80.2462 10.607 80.6383 11.8164 79.926 12.5102L76.2856 16.0559C76.0026 16.3316 75.8734 16.729 75.9402 17.1184L76.7991 22.1262C76.9672 23.1065 75.9382 23.8541 75.0578 23.3911L70.5587 21.0251C70.209 20.8412 69.7913 20.8412 69.4416 21.0251L64.9425 23.3911C64.0622 23.8541 63.0331 23.1065 63.2012 22.1262L64.0601 17.1184C64.1269 16.729 63.9977 16.3316 63.7147 16.0559L60.0743 12.5102C59.362 11.8164 59.7541 10.607 60.738 10.4632L65.7716 9.72748C66.162 9.67042 66.4995 9.42507 66.6741 9.07125L68.9241 4.51296Z" fill="#FFCC00"/>
<path d="M96.9241 4.51296C97.3643 3.62116 98.636 3.62116 99.0762 4.51296L101.326 9.07125C101.501 9.42507 101.838 9.67042 102.229 9.72748L107.262 10.4632C108.246 10.607 108.638 11.8164 107.926 12.5102L104.286 16.0559C104.003 16.3316 103.873 16.729 103.94 17.1184L104.799 22.1262C104.967 23.1065 103.938 23.8541 103.058 23.3911L98.5587 21.0251C98.209 20.8412 97.7913 20.8412 97.4416 21.0251L92.9425 23.3911C92.0622 23.8541 91.0331 23.1065 91.2012 22.1262L92.0601 17.1184C92.1269 16.729 91.9977 16.3316 91.7147 16.0559L88.0743 12.5102C87.362 11.8164 87.7541 10.607 88.738 10.4632L93.7716 9.72748C94.162 9.67042 94.4995 9.42507 94.6741 9.07125L96.9241 4.51296Z" fill="#FFCC00"/>
<path fill-rule="evenodd" clip-rule="evenodd" d="M126 4L122.641 9.25199C122.485 9.4963 122.23 9.66074 121.943 9.70269L116.337 10.5221C115.517 10.6419 115.191 11.6498 115.784 12.2279L119.79 16.1297C120.026 16.3594 120.134 16.6905 120.078 17.0151L119.133 22.5259C118.993 23.3429 119.85 23.9659 120.584 23.5801L126 20.7316V4Z" fill="#FFCC00"/>
<path d="M126 4L129.359 9.25199C129.515 9.4963 129.77 9.66074 130.057 9.70269L135.663 10.5221C136.483 10.6419 136.81 11.6498 136.216 12.2279L132.21 16.1297C131.974 16.3594 131.867 16.6905 131.922 17.0151L132.868 22.5259C133.008 23.3429 132.15 23.9659 131.417 23.5801L126 20.7316M126 4L122.641 9.25199C122.485 9.4963 122.23 9.66074 121.943 9.70269L116.337 10.5221C115.517 10.6419 115.191 11.6498 115.784 12.2279L119.79 16.1297C120.026 16.3594 120.134 16.6905 120.078 17.0151L119.133 22.5259C118.993 23.3429 119.85 23.9659 120.584 23.5801L126 20.7316M126 4V20.7316" stroke="#FFCC00" stroke-linecap="round" stroke-linejoin="round"/>
</svg>
